<svg xmlns="http://www.w3.org/2000/svg" width="46" height="46" viewBox="0 0 48 48"><g><path fill="#4285F4" d="M43.611 20.083H42V20H24v8h11.303C33.979 32.833 29.418 36 24 36c-6.627 0-12-5.373-12-12s5.373-12 12-12c2.769 0 5.317.957 7.327 2.544l6.611-6.611C34.058 6.053 29.284 4 24 4 12.954 4 4 12.954 4 24s8.954 20 20 20c11.045 0 19.824-8.955 19.824-20 0-1.341-.138-2.651-.213-3.917z"/><path fill="#34A853" d="M6.306 14.691l6.571 4.819C14.655 16.108 19.001 13 24 13c2.769 0 5.317.957 7.327 2.544l6.611-6.611C34.058 6.053 29.284 4 24 4c-7.732 0-14.41 4.41-17.694 10.691z"/><path fill="#FBBC05" d="M24 44c5.356 0 10.13-1.824 13.857-4.958l-6.406-5.238C29.418 36 24 36 24 36c-5.408 0-9.965-3.155-11.29-7.917l-6.563 5.061C9.573 39.509 16.268 44 24 44z"/><path fill="#EA4335" d="M43.611 20.083H42V20H24v8h11.303c-1.13 3.633-4.418 7.917-11.303 7.917-5.408 0-9.965-3.155-11.29-7.917l-6.563 5.061C9.573 39.509 16.268 44 24 44c7.732 0 14.427-4.491 17.29-10.939l-6.406-5.238C34.13 42.176 29.356 44 24 44z"/><path fill="none" d="M0 0h48v48H0z"/></g></svg>